<svg width="1024" height="1024" xmlns="http://www.w3.org/2000/svg" p-id="1908" version="1.1" class="icon" t="1742931573927">

 <g>
  <title>Layer 1</title>
  <path stroke="null" id="svg_1" p-id="1909" fill="#ffb22c" d="m807.51995,118.09m0,84.39712l0,355.2557q0,84.39712 -79.90241,84.39712l-192.10217,0q-79.90241,0 -79.90241,-84.39712l0,-355.2557q0,-84.39712 79.90241,-84.39712l192.10217,0q79.90241,0 79.90241,84.39712z"/>
  <path stroke="null" id="svg_3" p-id="1911" fill="#000000" d="m357.16119,127.82597l64.04794,0l0,736.34754l-64.04794,0l0,-736.34754zm191.41327,271.77499a52.3792,52.46451 0 0 1 -22.07652,-4.89161a51.57861,51.66261 0 0 1 -30.13255,-47.29224l0,-219.52098a32.02397,32.07612 0 0 1 32.02397,-32.07612l189.722,0a32.02397,32.07612 0 0 1 32.02397,32.07612l0,219.52098a52.03895,52.1237 0 0 1 -85.6441,39.84456l-41.24087,-34.86274l-41.24087,34.82264a51.72872,51.81297 0 0 1 -33.43503,12.37938zm157.19766,-61.4358zm-145.3588,-178.26306l0,161.6336l29.2619,-24.72869a51.93888,52.02346 0 0 1 67.16027,0l29.25189,24.72869l0,-161.6336l-125.67406,0z"/>
  <path stroke="null" id="svg_2" p-id="1910" fill="#854836" d="m707.89571,928l-395.32084,0c-82.8296,0 -150.22192,-68.19 -150.22192,-152l0,-528c0,-83.81 67.39232,-152 150.22192,-152l395.32084,0c82.8296,0 150.22192,68.19 150.22192,152l0,528c0,83.81 -67.39232,152 -150.22192,152zm-395.32084,-768a87.06942,88.1 0 0 0 -86.97059,88l0,528a87.06942,88.1 0 0 0 86.97059,88l395.32084,0a87.06942,88.1 0 0 0 86.97059,-88l0,-528a87.06942,88.1 0 0 0 -86.97059,-88l-395.32084,0z"/>
  <path id="svg_4" d="m408,96" opacity="NaN" stroke="null" fill="#2C5CCB"/>
  <rect id="svg_5" height="38" width="117" y="122" x="321" fill="#854836"/>
 </g>
</svg>